<svg width="56" height="14" viewBox="0 0 56 14" fill="none" xmlns="http://www.w3.org/2000/svg">
<path d="M11.1076 4.66284C10.6218 1.97818 8.47408 0.392955 5.84055 0.392955C2.49112 0.392955 0.0621449 2.97534 0.0621449 7.11739C0.0621449 11.2594 2.49112 13.8418 5.84055 13.8418C8.47408 13.8418 10.6218 12.2566 11.1076 9.57193H9.52237C9.13885 11.3873 7.57919 12.3589 5.84055 12.3589C3.46271 12.3589 1.59624 10.518 1.59624 7.11739C1.59624 3.71682 3.46271 1.87591 5.84055 1.87591C7.57919 1.87591 9.13885 2.8475 9.52237 4.66284H11.1076ZM13.4647 13.6628H14.9732V7.44977C14.9732 6.12023 16.0215 5.14864 17.4533 5.14864C17.856 5.14864 18.2715 5.22534 18.3738 5.25091V3.71682C18.2012 3.70403 17.8049 3.69125 17.5811 3.69125C16.405 3.69125 15.3823 4.35602 15.0243 5.32761H14.9221V3.84466H13.4647V13.6628ZM23.9796 13.8674C25.9739 13.8674 27.4313 12.8702 27.8915 11.3873L26.4341 10.9782C26.0506 12.0009 25.1621 12.5123 23.9796 12.5123C22.209 12.5123 20.9881 11.3681 20.9178 9.26511H28.0449V8.62591C28.0449 4.96966 25.8716 3.71682 23.8262 3.71682C21.1671 3.71682 19.4029 5.81341 19.4029 8.83046C19.4029 11.8475 21.1415 13.8674 23.9796 13.8674ZM20.9178 7.96114C21.0201 6.43344 22.1003 5.07193 23.8262 5.07193C25.4625 5.07193 26.5108 6.2992 26.5108 7.96114H20.9178ZM33.2289 13.893C34.9419 13.893 35.8368 12.9725 36.1436 12.3333H36.2203V13.6628H37.7289V7.19409C37.7289 4.07477 35.351 3.71682 34.0982 3.71682C32.6152 3.71682 30.9277 4.22818 30.1607 6.01795L31.5925 6.52932C31.9249 5.81341 32.7111 5.04636 34.1493 5.04636C35.5364 5.04636 36.2203 5.78145 36.2203 7.04068V7.09182C36.2203 7.82051 35.4789 7.75659 33.6891 7.98671C31.8674 8.22321 29.8794 8.62591 29.8794 10.8759C29.8794 12.7935 31.3624 13.893 33.2289 13.893ZM33.459 12.5378C32.2573 12.5378 31.388 12.0009 31.388 10.9526C31.388 9.80205 32.4363 9.44409 33.6124 9.29068C34.2516 9.21398 35.9647 9.035 36.2203 8.72818V10.1089C36.2203 11.3361 35.2488 12.5378 33.459 12.5378ZM44.7521 3.84466H42.6555V1.49239H41.147V3.84466H39.6641V5.12307H41.147V11.2594C41.147 12.9725 42.5277 13.7907 43.8061 13.7907C44.3686 13.7907 44.7266 13.6884 44.9311 13.6117L44.6243 12.2566C44.4964 12.2822 44.2919 12.3333 43.9595 12.3333C43.2947 12.3333 42.6555 12.1288 42.6555 10.8503V5.12307H44.7521V3.84466ZM51.0323 13.8674C53.0266 13.8674 54.484 12.8702 54.9442 11.3873L53.4869 10.9782C53.1033 12.0009 52.2148 12.5123 51.0323 12.5123C49.2617 12.5123 48.0408 11.3681 47.9705 9.26511H55.0977V8.62591C55.0977 4.96966 52.9244 3.71682 50.8789 3.71682C48.2198 3.71682 46.4556 5.81341 46.4556 8.83046C46.4556 11.8475 48.1942 13.8674 51.0323 13.8674ZM47.9705 7.96114C48.0728 6.43344 49.1531 5.07193 50.8789 5.07193C52.5153 5.07193 53.5636 6.2992 53.5636 7.96114H47.9705Z" fill="white"/>
</svg>
